<svg xmlns="http://www.w3.org/2000/svg" width="800" height="500" viewBox="0 0 800 500">
  <defs>
    <radialGradient id="grad" cx="50%" cy="50%" r="50%">
      <stop offset="0%" stop-color="#047857" stop-opacity="0.3"/>
      <stop offset="100%" stop-color="#020617" stop-opacity="1"/>
    </radialGradient>
  </defs>
  <rect width="800" height="500" fill="#020617"/>
  <rect width="800" height="500" fill="url(#grad)"/>
  
  <g transform="translate(250, 100)" stroke="#10b981" stroke-width="6" fill="none" opacity="0.8">
    <path d="M50,0 L200,0 L300,100 L300,300 L150,300 L50,200 Z" fill="#064e3b" fill-opacity="0.2"/>
    <circle cx="120" cy="70" r="16" fill="#34d399" />
    <line x1="50" y1="150" x2="250" y2="150" stroke-width="4" stroke-dasharray="10,10" opacity="0.5"/>
  </g>
  <g fill="#a7f3d0" font-family="sans-serif" font-size="32" font-weight="bold" opacity="0.9">
    <text x="320" y="280">20% OFF</text>
  </g>
  
  <g transform="translate(100, 300) scale(0.5)" stroke="#34d399" stroke-width="4" fill="none" opacity="0.3">
    <path d="M50,0 L200,0 L300,100 L300,300 L150,300 L50,200 Z" />
  </g>
  <g transform="translate(500, 50) scale(0.7)" stroke="#34d399" stroke-width="4" fill="none" opacity="0.3">
    <path d="M50,0 L200,0 L300,100 L300,300 L150,300 L50,200 Z" />
  </g>
</svg>